<svg version="1.0" xmlns="http://www.w3.org/2000/svg" width="682.667" height="682.667" viewBox="0 0 512 512"><path d="M50.5 32.9C43.6 34.6 38 39.2 34.4 46c-1.8 3.4-1.9 10.7-2.2 208-.2 159.4 0 205.5 1 209 1.6 5.8 9.6 14.1 15.4 15.8 6 1.8 408.8 1.8 414.8 0 5.8-1.7 13.8-10 15.4-15.8 1-3.5 1.2-49.6 1-209-.3-197.3-.4-204.6-2.2-208-2.6-4.9-6.4-8.8-11.1-11.3l-4-2.2-204.5-.2c-112.5 0-205.8.2-207.5.6zm376.2 118.3 22.3 22.3-113.2 113.2L222.5 400l-79.2-79.2L64 241.5l22.7-22.7 22.8-22.8 56.5 56.5 56.5 56.5 90-90c49.5-49.5 90.4-90 91-90 .5 0 11 10 23.2 22.2z"/></svg>